<?xml version="1.0" encoding="UTF-8"?>
<svg version="1.1" xmlns="http://www.w3.org/2000/svg" width="512" height="512">
<path d="M0 0 C34.32 0 68.64 0 104 0 C104 34.32 104 68.64 104 104 C96.74 104 89.48 104 82 104 C81.67 82.55 81.34 61.1 81 39 C55.59 64.41 30.18 89.82 4 116 C0.79184196 114.39592098 -0.66358318 113.58286066 -3.015625 111.1796875 C-3.80839844 110.37724609 -3.80839844 110.37724609 -4.6171875 109.55859375 C-5.15601562 109.00300781 -5.69484375 108.44742188 -6.25 107.875 C-6.80429688 107.31167969 -7.35859375 106.74835938 -7.9296875 106.16796875 C-9.29104485 104.78313972 -10.64614859 103.39216796 -12 102 C-10.66627583 99.03845002 -9.20842075 96.96023206 -6.91220093 94.67169189 C-6.27839005 94.03513168 -5.64457916 93.39857147 -4.99156189 92.74272156 C-4.29744705 92.05579727 -3.60333221 91.36887299 -2.88818359 90.66113281 C-2.15637375 89.92903091 -1.4245639 89.19692902 -0.670578 88.44264221 C1.74875829 86.02469891 4.17510113 83.61391631 6.6015625 81.203125 C8.28065802 79.52775971 9.95931243 77.85195222 11.63754272 76.17572021 C16.05545362 71.76544498 20.47933781 67.36120887 24.90447998 62.95819092 C30.2128807 57.6738473 35.51385518 52.38205543 40.81607056 47.09150696 C48.87169622 39.05527471 56.93671466 31.02857966 65 23 C43.55 22.67 22.1 22.34 0 22 C0 14.74 0 7.48 0 0 Z " fill="#000000" transform="translate(117,296)"/>
<path d="M0 0 C2.96154998 1.33372417 5.03976794 2.79157925 7.32830811 5.08779907 C7.96486832 5.72160995 8.60142853 6.35542084 9.25727844 7.00843811 C9.94420273 7.70255295 10.63112701 8.39666779 11.33886719 9.11181641 C12.07096909 9.84362625 12.80307098 10.5754361 13.55735779 11.329422 C15.97530109 13.74875829 18.38608369 16.17510113 20.796875 18.6015625 C22.47224029 20.28065802 24.14804778 21.95931243 25.82427979 23.63754272 C30.23455502 28.05545362 34.63879113 32.47933781 39.04180908 36.90447998 C44.3261527 42.2128807 49.61794457 47.51385518 54.90849304 52.81607056 C62.94472529 60.87169622 70.97142034 68.93671466 79 77 C79.33 55.55 79.66 34.1 80 12 C87.26 12 94.52 12 102 12 C102 46.32 102 80.64 102 116 C67.68 116 33.36 116 -2 116 C-2 108.74 -2 101.48 -2 94 C19.45 93.67 40.9 93.34 63 93 C37.59 67.59 12.18 42.18 -14 16 C-12.39592098 12.79184196 -11.58286066 11.33641682 -9.1796875 8.984375 C-8.64472656 8.45585938 -8.10976562 7.92734375 -7.55859375 7.3828125 C-7.00300781 6.84398438 -6.44742188 6.30515625 -5.875 5.75 C-5.31167969 5.19570312 -4.74835938 4.64140625 -4.16796875 4.0703125 C-2.78313972 2.70895515 -1.39216796 1.35385141 0 0 Z " fill="#000000" transform="translate(119,100)"/>
<path d="M0 0 C33.99 0 67.98 0 103 0 C103 7.26 103 14.52 103 22 C81.55 22.33 60.1 22.66 38 23 C43.57003906 28.51203125 49.14007813 34.0240625 54.87890625 39.703125 C58.39396019 43.19264291 61.90825204 46.68286584 65.41992188 50.17578125 C70.9986292 55.7245546 76.58000657 61.27045298 82.17749023 66.80029297 C86.68818107 71.25681036 91.18668508 75.72529494 95.67686272 80.2024765 C97.39539644 81.91174414 99.11833754 83.61659187 100.845644 85.31699371 C103.25716869 87.69242615 105.65279394 90.08284071 108.04516602 92.47753906 C108.76876816 93.18316483 109.4923703 93.88879059 110.23789978 94.61579895 C111.20767258 95.59588173 111.20767258 95.59588173 112.19703674 96.59576416 C113.05015615 97.44197012 113.05015615 97.44197012 113.92051029 98.30527115 C115 100 115 100 114.83656216 102.02209091 C113.40771919 105.40034734 110.74776592 107.76432507 108.1875 110.3125 C107.65318359 110.87517578 107.11886719 111.43785156 106.56835938 112.01757812 C104.98046875 113.61328125 104.98046875 113.61328125 102 116 C98.63725477 115.7226159 96.96135775 114.33368237 94.63372803 111.99449158 C93.98875366 111.3536412 93.3437793 110.71279083 92.67926025 110.05252075 C91.98298523 109.3454599 91.28671021 108.63839905 90.56933594 107.90991211 C89.82748047 107.16849472 89.085625 106.42707733 88.32128906 105.66319275 C85.86847436 103.20828634 83.42645931 100.74292095 80.984375 98.27734375 C79.28680753 96.57418172 77.58857695 94.87168038 75.88970947 93.16981506 C71.41802655 88.6866725 66.95542532 84.194594 62.49462891 79.70062256 C57.14163971 74.31156425 51.77748538 68.93362237 46.41519165 63.55382538 C38.26818872 55.37772123 30.13553537 47.18758737 22 39 C21.67 60.45 21.34 81.9 21 104 C14.07 104 7.14 104 0 104 C0 69.68 0 35.36 0 0 Z " fill="#000000" transform="translate(302,296)"/>
<path d="M0 0 C3.37825642 1.42884296 5.74223416 4.08879624 8.29040909 6.64906216 C8.85308487 7.18337856 9.41576065 7.71769497 9.99548721 8.26820278 C11.59119034 9.85609341 11.59119034 9.85609341 13.97790909 12.83656216 C13.70052498 16.19930739 12.31159146 17.87520441 9.97240067 20.20283413 C9.33155029 20.84780849 8.69069992 21.49278286 8.03042984 22.1573019 C7.32336899 22.85357693 6.61630814 23.54985195 5.8878212 24.26722622 C5.14640381 25.00908169 4.40498642 25.75093716 3.64110184 26.51527309 C1.18619543 28.96808779 -1.27916996 31.41010285 -3.74474716 33.85218716 C-5.4479092 35.54975463 -7.15041053 37.24798521 -8.85227585 38.94685268 C-13.33541841 43.4185356 -17.82749691 47.88113684 -22.32146835 52.34193325 C-27.71052666 57.69492245 -33.08846854 63.05907678 -38.46826553 68.42137051 C-46.64436968 76.56837344 -54.83450354 84.70102679 -63.02209091 92.83656216 C-30.84709091 93.33156216 -30.84709091 93.33156216 1.97790909 93.83656216 C1.97790909 101.09656216 1.97790909 108.35656216 1.97790909 115.83656216 C-32.01209091 115.83656216 -66.00209091 115.83656216 -101.02209091 115.83656216 C-101.02209091 81.51656216 -101.02209091 47.19656216 -101.02209091 11.83656216 C-94.09209091 11.83656216 -87.16209091 11.83656216 -80.02209091 11.83656216 C-79.69209091 33.28656216 -79.36209091 54.73656216 -79.02209091 76.83656216 C-73.51005966 71.26652309 -67.99802841 65.69648403 -62.31896591 59.95765591 C-58.829448 56.44260196 -55.33922508 52.92831012 -51.84630966 49.41664028 C-46.29753631 43.83793296 -40.75163793 38.25655559 -35.22179794 32.65907192 C-30.76528055 28.14838108 -26.29679597 23.64987707 -21.81961441 19.15969944 C-20.11034677 17.44116572 -18.40549904 15.71822461 -16.7050972 13.99091816 C-14.32966476 11.57939347 -11.9392502 9.18376822 -9.54455185 6.79139614 C-8.83892609 6.067794 -8.13330032 5.34419186 -7.40629196 4.59866238 C-6.75290344 3.95214718 -6.09951492 3.30563198 -5.42632675 2.63952541 C-4.58012079 1.78640601 -4.58012079 1.78640601 -3.71681976 0.91605186 C-2.02209091 -0.16343784 -2.02209091 -0.16343784 0 0 Z " fill="#000000" transform="translate(403.02209091186523,100.16343784332275)"/>
</svg>
